<?xml version="1.0" encoding="UTF-8" standalone="no"?>
<!-- Created with Inkscape (http://www.inkscape.org/) -->

<svg
   width="512"
   height="512"
   viewBox="0 0 135.46666 135.46667"
   version="1.1"
   id="svg1"
   sodipodi:docname="lrb.svg"
   inkscape:version="1.4 (e7c3feb100, 2024-10-09)"
   inkscape:export-filename="lrb_128.png"
   inkscape:export-xdpi="24"
   inkscape:export-ydpi="24"
   xmlns:inkscape="http://www.inkscape.org/namespaces/inkscape"
   xmlns:sodipodi="http://sodipodi.sourceforge.net/DTD/sodipodi-0.dtd"
   xmlns="http://www.w3.org/2000/svg"
   xmlns:svg="http://www.w3.org/2000/svg">
  <sodipodi:namedview
     id="namedview1"
     pagecolor="#505050"
     bordercolor="#eeeeee"
     borderopacity="1"
     inkscape:showpageshadow="0"
     inkscape:pageopacity="0"
     inkscape:pagecheckerboard="0"
     inkscape:deskcolor="#505050"
     inkscape:document-units="mm"
     inkscape:zoom="0.84765627"
     inkscape:cx="169.29032"
     inkscape:cy="309.67741"
     inkscape:window-width="1920"
     inkscape:window-height="1054"
     inkscape:window-x="0"
     inkscape:window-y="0"
     inkscape:window-maximized="1"
     inkscape:current-layer="layer1"
     inkscape:export-bgcolor="#00000000" />
  <defs
     id="defs1">
    <inkscape:path-effect
       effect="offset"
       id="path-effect2"
       is_visible="true"
       lpeversion="1.3"
       linejoin_type="miter"
       unit="mm"
       offset="1.6"
       miter_limit="4"
       attempt_force_join="false"
       update_on_knot_move="true" />
    <inkscape:path-effect
       effect="offset"
       id="path-effect520"
       is_visible="true"
       lpeversion="1.3"
       linejoin_type="round"
       unit="mm"
       offset="5"
       miter_limit="3.9"
       attempt_force_join="true"
       update_on_knot_move="true" />
    <inkscape:path-effect
       effect="bspline"
       id="path-effect3"
       is_visible="true"
       lpeversion="1.3"
       weight="33.333333"
       steps="2"
       helper_size="0"
       apply_no_weight="true"
       apply_with_weight="true"
       only_selected="false"
       uniform="false" />
    <filter
       style="color-interpolation-filters:sRGB;"
       inkscape:label="Blur"
       id="filter205"
       x="-0.16190267"
       y="-0.3212822"
       width="1.3238053"
       height="1.6425644">
      <feGaussianBlur
         stdDeviation="4 4"
         result="fbSourceGraphic"
         id="feGaussianBlur205" />
      <feColorMatrix
         result="fbSourceGraphicAlpha"
         in="fbSourceGraphic"
         values="0 0 0 -1 0 0 0 0 -1 0 0 0 0 -1 0 0 0 0 1 0"
         id="feColorMatrix205" />
      <feGaussianBlur
         id="feGaussianBlur206"
         stdDeviation="4 4"
         result="blur"
         in="fbSourceGraphic" />
    </filter>
    <filter
       id="mask-powermask-path-effect4_inverse"
       inkscape:label="filtermask-powermask-path-effect4"
       style="color-interpolation-filters:sRGB"
       height="100"
       width="100"
       x="-50"
       y="-50">
      <feColorMatrix
         id="mask-powermask-path-effect4_primitive1"
         values="1"
         type="saturate"
         result="fbSourceGraphic" />
      <feColorMatrix
         id="mask-powermask-path-effect4_primitive2"
         values="-1 0 0 0 1 0 -1 0 0 1 0 0 -1 0 1 0 0 0 1 0 "
         in="fbSourceGraphic" />
    </filter>
  </defs>
  <g
     inkscape:groupmode="layer"
     id="layer2"
     inkscape:label="Layer 2"
     transform="translate(-3.1453218,2.6614261)">
    <path
       style="fill:#ffffff;fill-opacity:1;stroke:#000000;stroke-width:4;stroke-linecap:round;stroke-linejoin:round;stroke-dasharray:none;stroke-opacity:1;paint-order:stroke fill markers"
       d="M 31.211268,124.11923 20.565565,19.597774"
       id="path1" />
    <path
       id="rect1"
       style="stroke:#000000;stroke-width:4;stroke-linecap:round;stroke-linejoin:round;paint-order:stroke fill markers"
       transform="rotate(-5.225166)"
       d="m 15.946393,20.073868 h 5.322852 v 5.322852 h -5.322852 z" />
    <path
       style="fill:#c96541;fill-opacity:1;stroke:#93512d;stroke-width:4;stroke-linecap:round;stroke-linejoin:round;stroke-dasharray:none;stroke-opacity:1;paint-order:stroke fill markers"
       d="m 66.293705,21.654331 c 0,0 7.191193,-0.592095 10.579451,0.113902 7.377393,1.537196 16.831816,5.035897 26.348464,5.939376 12.74283,1.209763 30.24328,-2.258062 30.24328,-2.258062 0,0 -7.9842,7.984251 -13.47453,11.055656 -5.49034,3.071404 -10.78796,8.025721 -16.80518,7.372676 l -3.71398,-0.403076 c -3.305846,-0.358781 6.45222,1.612926 9.99318,2.129586 3.54096,0.516661 22.62358,0.486072 22.62358,0.486072 0,0 -26.65103,28.139725 -42.970925,32.815655 -7.07773,2.027891 -24.319402,4.850583 -32.259305,2.993224 -8.619534,-2.016343 2.419478,-6.411618 2.419478,-6.411618"
       id="path7"
       sodipodi:nodetypes="csscsssscssc" />
    <path
       id="path6"
       style="fill:#db6e46;fill-opacity:1;stroke:#93512d;stroke-width:4;stroke-linecap:round;stroke-linejoin:round;stroke-dasharray:none;stroke-opacity:1;paint-order:stroke fill markers"
       transform="translate(5.4746544,-2.7373272)"
       d="m 57.985849,75.393268 c -3.787669,10.302928 -21.277251,4.87201 -32.043522,6.576342 1.654005,-9.406145 3.308242,-18.812448 2.471167,-27.473775 -0.837076,-8.661326 -4.165444,-16.577604 -7.4936,-24.494112 9.882403,-4.677658 19.764632,-9.355572 29.504659,-9.194271 2.465953,0.04084 6.608956,-1.505189 7.42487,0.915707 m 0,0 c 0,0 4.988247,11.91001 4.90521,24.32283 -0.102669,15.347731 -4.768784,29.347279 -4.768784,29.347279" />
    <path
       style="fill:none;fill-opacity:1;stroke:#93512d;stroke-width:1;stroke-linecap:round;stroke-linejoin:round;stroke-dasharray:none;stroke-opacity:1;paint-order:stroke fill markers"
       d="m 100.58981,43.30866 c 0.0446,-0.142169 0.0455,-0.28773 0.0907,-0.423408 0.0151,-0.04537 -0.0151,-0.105852 0,-0.151217 0.004,-0.01352 0.0257,-0.01672 0.0302,-0.03025"
       id="path25"
       sodipodi:nodetypes="cscc" />
    <path
       style="fill:none;fill-opacity:1;stroke:#93512d;stroke-width:1;stroke-linecap:round;stroke-linejoin:round;stroke-dasharray:none;stroke-opacity:1;paint-order:stroke fill markers"
       d="m 102.19271,43.671581 c 0.14402,-0.15517 0.26536,-0.342418 0.33268,-0.54438 0.0353,-0.105921 0,-0.276286 0,-0.393166"
       id="path26" />
    <path
       style="fill:none;fill-opacity:1;stroke:#93512d;stroke-width:1;stroke-linecap:round;stroke-linejoin:round;stroke-dasharray:none;stroke-opacity:1;paint-order:stroke fill markers"
       d="m 104.52146,44.064747 c 0.0651,-0.248878 -0.0529,-0.438399 -0.0907,-0.665356 -0.0188,-0.112691 -0.0124,-0.236437 -0.0605,-0.332679 -0.0263,-0.05269 0,-0.437126 0,-0.514138"
       id="path27" />
    <path
       style="fill:none;fill-opacity:1;stroke:#93512d;stroke-width:1;stroke-linecap:round;stroke-linejoin:round;stroke-dasharray:none;stroke-opacity:1;paint-order:stroke fill markers"
       d="m 106.66875,43.974016 c -0.15735,-0.43329 -0.22665,-0.891601 -0.36292,-1.330712 -0.0322,-0.103698 -0.0903,-0.19827 -0.12098,-0.302434 -0.0201,-0.06839 -0.0142,-0.142245 -0.0302,-0.211704 -0.0273,-0.118321 -0.0835,-0.220316 -0.12098,-0.332679 -0.0127,-0.03826 0.008,-0.08143 0,-0.120975 -0.009,-0.04421 -0.0403,-0.08065 -0.0605,-0.120973"
       id="path28" />
    <path
       style="fill:none;fill-opacity:1;stroke:#93512d;stroke-width:1;stroke-linecap:round;stroke-linejoin:round;stroke-dasharray:none;stroke-opacity:1;paint-order:stroke fill markers"
       d="m 108.39263,43.187687 c -0.0202,-0.262112 -0.0403,-0.524221 -0.0605,-0.786331 -0.0508,-0.65986 -0.0624,-0.775041 -0.18146,-1.330714 -0.034,-0.158549 -0.0216,-0.328422 -0.0605,-0.483893 -0.0389,-0.155713 -0.0634,-0.31972 -0.0907,-0.483897 -0.002,-0.01437 -0.0605,-0.178713 -0.0605,-0.211704"
       id="path29" />
    <path
       style="fill:none;fill-opacity:1;stroke:#93512d;stroke-width:1;stroke-linecap:round;stroke-linejoin:round;stroke-dasharray:none;stroke-opacity:1;paint-order:stroke fill markers"
       d="m 110.26772,42.189653 c -0.0968,-0.699776 -0.40428,-1.344936 -0.57463,-2.026315 -0.0314,-0.125764 -0.0298,-0.27043 -0.0605,-0.393165 -0.003,-0.01384 -0.0258,-0.01672 -0.0302,-0.03024 -0.0205,-0.06138 0.0155,-0.149564 0,-0.211706 -0.009,-0.03671 -0.0484,-0.08464 -0.0605,-0.120973 -0.0202,-0.06057 -0.021,-0.31891 -0.0303,-0.393166 -0.0151,-0.120607 -0.0605,-0.220059 -0.0605,-0.332679"
       id="path31" />
    <path
       style="fill:none;fill-opacity:1;stroke:#93512d;stroke-width:1;stroke-linecap:round;stroke-linejoin:round;stroke-dasharray:none;stroke-opacity:1;paint-order:stroke fill markers"
       d="m 111.90087,41.675512 c -0.0335,-0.257943 -0.0159,-0.531964 -0.0907,-0.786329 -0.0333,-0.113202 -0.0894,-0.218988 -0.12098,-0.332679 -0.206,-0.74163 0.15962,0.327628 -0.0907,-0.423407 -0.0565,-0.169537 -0.11883,-0.34715 -0.18146,-0.514141 -0.0332,-0.08842 -0.0978,-0.179459 -0.12097,-0.27219 -0.005,-0.01955 0.006,-0.04136 0,-0.06049 -0.0115,-0.03448 -0.047,-0.05698 -0.0605,-0.09073 -0.0101,-0.03024 -0.0202,-0.06049 -0.0302,-0.09073 0,-0.02016 0.006,-0.0411 0,-0.06049 -0.0477,-0.167005 -0.0967,-0.35057 -0.15122,-0.514141 -0.0303,-0.09086 -0.0724,-0.180411 -0.0907,-0.27219 -0.006,-0.02966 0.007,-0.06139 0,-0.09073 -0.003,-0.01384 -0.0239,-0.01749 -0.0302,-0.03024 -0.009,-0.0176 -0.0907,-0.368514 -0.0907,-0.393165"
       id="path32" />
    <path
       style="fill:none;fill-opacity:1;stroke:#93512d;stroke-width:1;stroke-linecap:round;stroke-linejoin:round;stroke-dasharray:none;stroke-opacity:1;paint-order:stroke fill markers"
       d="m 113.50377,41.0404 c -0.18717,-0.554082 -0.29671,-1.123486 -0.42341,-1.693634 -0.0223,-0.100362 -0.0309,-0.203962 -0.0605,-0.302435 -0.0156,-0.052 -0.0508,-0.09781 -0.0605,-0.151217 -0.0108,-0.05951 0.0108,-0.121949 0,-0.181462 -0.06,-0.330026 -0.0595,0.0088 -0.0907,-0.27219 -0.006,-0.0501 0.005,-0.101063 0,-0.151218 -0.0311,-0.311171 -0.0215,0.0092 -0.0907,-0.302434 -0.009,-0.03937 0.006,-0.08105 0,-0.120976 -0.009,-0.06312 -0.05,-0.11857 -0.0605,-0.181462 -0.023,-0.137842 -0.0337,-0.248867 -0.0907,-0.362921 -0.0161,-0.03226 0.0161,-0.08871 0,-0.120972 -0.0559,-0.111787 -0.12097,-0.283163 -0.12097,-0.42341"
       id="path33" />
    <path
       style="fill:none;fill-opacity:1;stroke:#93512d;stroke-width:1;stroke-linecap:round;stroke-linejoin:round;stroke-dasharray:none;stroke-opacity:1;paint-order:stroke fill markers"
       d="m 115.01595,40.163338 c 0,-0.04033 0.0403,-0.120972 0,-0.120972 -0.0403,0 0,0.161298 0,0.120972 0,-0.159665 0.0273,-0.38069 0,-0.544382 0.0352,-0.09811 -0.0721,-0.137221 -0.0907,-0.211704 -0.0122,-0.0489 0.0122,-0.102317 0,-0.151217 -0.009,-0.03526 -0.0505,-0.05578 -0.0605,-0.09073 -0.0111,-0.03877 0.01,-0.08185 0,-0.120973 -0.0109,-0.04374 -0.0447,-0.07876 -0.0605,-0.120976 -0.0398,-0.106116 -0.0747,-0.250708 -0.0907,-0.362921 -0.004,-0.02994 0.008,-0.06165 0,-0.09073 -0.0124,-0.04335 -0.0447,-0.07876 -0.0605,-0.120973 -0.0944,-0.251688 -0.14856,-0.5338 -0.2117,-0.786331 -0.0109,-0.04374 -0.0496,-0.07723 -0.0605,-0.120973 -0.007,-0.02934 0.01,-0.06204 0,-0.09073 -0.0482,-0.144473 -0.10319,-0.279344 -0.15121,-0.42341 -0.01,-0.02869 0.007,-0.06139 0,-0.09073 -0.0203,-0.08104 -0.0738,-0.157541 -0.0907,-0.241946 -0.0268,-0.133741 -0.0607,-0.333044 -0.12098,-0.453652 -0.0159,-0.03173 -0.0605,-0.106873 -0.0605,-0.120975"
       id="path34" />
    <path
       style="fill:none;fill-opacity:1;stroke:#93512d;stroke-width:1;stroke-linecap:round;stroke-linejoin:round;stroke-dasharray:none;stroke-opacity:1;paint-order:stroke fill markers"
       d="m 116.40715,39.256035 c -0.23435,-0.537613 -0.37283,-1.098143 -0.51414,-1.663391 -0.0239,-0.09583 -0.0769,-0.205237 -0.0907,-0.302434 -0.0159,-0.11153 -0.0163,-0.220803 -0.0302,-0.33268 -0.0469,-0.375044 -0.0103,0.0896 -0.0605,-0.211703 -0.0142,-0.08526 -0.0131,-0.156152 -0.0303,-0.241948 -0.0153,-0.07668 0.019,-0.166122 0,-0.241949 -0.0304,-0.121454 -0.0604,-0.241625 -0.0907,-0.362921 -0.014,-0.05624 0.0182,-0.126735 0,-0.181462 -0.0206,-0.06194 -0.0447,-0.118461 -0.0605,-0.181461 -0.007,-0.02934 0.0135,-0.06368 0,-0.09073 -0.0368,-0.07361 -0.0605,-0.15323 -0.0605,-0.241948"
       id="path35" />
    <path
       style="fill:none;fill-opacity:1;stroke:#93512d;stroke-width:1;stroke-linecap:round;stroke-linejoin:round;stroke-dasharray:none;stroke-opacity:1;paint-order:stroke fill markers"
       d="m 117.94956,38.288244 c -0.0302,-0.141136 -0.0535,-0.283943 -0.0907,-0.42341 -0.42703,-1.366477 -0.0388,-0.06464 -0.18147,-0.635113 -0.0303,-0.121071 -0.097,-0.243126 -0.12097,-0.362921 -0.006,-0.02966 0.008,-0.06165 0,-0.09073 -0.0124,-0.04335 -0.0447,-0.07876 -0.0605,-0.120973 -0.0837,-0.22333 -0.11321,-0.46812 -0.18146,-0.6956 -0.0156,-0.052 -0.0473,-0.09855 -0.0605,-0.151218 -0.007,-0.02934 0,-0.06049 0,-0.09073 -0.0101,-0.04033 -0.0188,-0.08101 -0.0302,-0.120972 -0.0149,-0.0522 -0.0473,-0.09855 -0.0605,-0.151218 -0.005,-0.01955 0.006,-0.04136 0,-0.06049 -0.0576,-0.172878 -0.006,0.182833 -0.0605,-0.09073 -0.006,-0.02966 0.006,-0.06108 0,-0.09073 -0.0299,-0.149487 -0.0907,-0.26938 -0.0907,-0.42341"
       id="path36" />
    <path
       style="fill:none;fill-opacity:1;stroke:#93512d;stroke-width:1;stroke-linecap:round;stroke-linejoin:round;stroke-dasharray:none;stroke-opacity:1;paint-order:stroke fill markers"
       d="m 119.1593,37.259965 c -0.0351,-0.133403 -0.13139,-0.254413 -0.15121,-0.393165 -0.006,-0.03992 0.007,-0.0812 0,-0.120973 -0.0117,-0.07047 -0.0767,-0.141481 -0.0907,-0.211707 -0.006,-0.02965 0.01,-0.06204 0,-0.09073 -0.0115,-0.03448 -0.049,-0.05625 -0.0605,-0.09073 -0.01,-0.02869 0.01,-0.06204 0,-0.09073 -0.0115,-0.03448 -0.0462,-0.05732 -0.0605,-0.09073 -0.13974,-0.326067 0.0441,0.04847 -0.0302,-0.211703 -0.12494,-0.24987 -0.019,0.0071 -0.0605,-0.241949 -0.0256,-0.153601 -0.1507,-0.299868 -0.18146,-0.453651 -0.006,-0.02966 0.0112,-0.06265 0,-0.09073 -0.0106,-0.02647 -0.0499,-0.03401 -0.0605,-0.06049 -0.0112,-0.02808 0.005,-0.0609 0,-0.09073 -0.0465,-0.279003 -0.007,0.111144 -0.0907,-0.181462 -0.0111,-0.03877 0.0111,-0.0822 0,-0.120972 -0.065,-0.227664 -0.0492,0.01508 -0.0907,-0.151218 -0.0147,-0.05876 -0.0156,-0.122703 -0.0302,-0.181461 -0.0156,-0.06231 -0.0605,-0.115301 -0.0605,-0.18146"
       id="path41" />
    <path
       style="fill:none;fill-opacity:1;stroke:#93512d;stroke-width:1;stroke-linecap:round;stroke-linejoin:round;stroke-dasharray:none;stroke-opacity:1;paint-order:stroke fill markers"
       d="m 120.49002,36.352661 c -0.10614,-0.406953 -0.29465,-0.755181 -0.39317,-1.149252 -0.016,-0.06405 -0.0747,-0.117417 -0.0907,-0.181462 -0.02,-0.07999 -0.0405,-0.161954 -0.0605,-0.241948 -0.0365,-0.146042 -0.0144,0.0016 -0.0605,-0.09073 -0.0439,-0.08775 -0.0682,-0.182107 -0.0907,-0.27219 -0.019,-0.07579 -0.0979,-0.142436 -0.12098,-0.211704 -0.0176,-0.05284 -0.0126,-0.09837 -0.0302,-0.151217 -0.009,-0.02705 -0.0477,-0.03498 -0.0605,-0.06049 -0.0202,-0.04046 -0.12097,-0.376397 -0.12097,-0.42341"
       id="path42" />
    <path
       style="fill:none;fill-opacity:1;stroke:#93512d;stroke-width:1;stroke-linecap:round;stroke-linejoin:round;stroke-dasharray:none;stroke-opacity:1;paint-order:stroke fill markers"
       d="m 121.97195,35.626817 c -0.0208,-0.208275 -0.12104,-0.363046 -0.21171,-0.544383 -0.0577,-0.115332 -0.0845,-0.251728 -0.15121,-0.362921 -0.0982,-0.163685 -0.25516,-0.355246 -0.30244,-0.544383 -0.005,-0.01955 0.009,-0.04245 0,-0.06049 -0.0127,-0.02551 -0.0434,-0.03768 -0.0605,-0.06049 -0.047,-0.06269 -0.005,-0.07102 -0.0302,-0.120975 -0.0176,-0.03523 -0.0429,-0.0555 -0.0605,-0.09073 -0.009,-0.01804 0.0143,-0.04623 0,-0.06049 -0.007,-0.0071 -0.0231,0.0071 -0.0302,0 -0.0143,-0.01426 0.009,-0.04245 0,-0.06049 -0.0209,-0.0418 -0.0605,-0.07037 -0.0605,-0.120973 0,-0.0057 -0.0605,-0.176451 -0.0605,-0.120975 0,0.01008 0.0302,0.01008 0.0302,0 0,-0.01844 -0.10591,-0.211826 -0.12097,-0.241949 -0.009,-0.01826 0.014,-0.07675 0,-0.09073 -0.007,-0.0071 -0.0231,0.0071 -0.0303,0 -0.0143,-0.01426 0.0143,-0.04623 0,-0.06049 -0.0403,-0.04032 -0.0302,0.05041 -0.0302,-0.03024"
       id="path43" />
    <path
       style="fill:none;fill-opacity:1;stroke:#93512d;stroke-width:1;stroke-linecap:round;stroke-linejoin:round;stroke-dasharray:none;stroke-opacity:1;paint-order:stroke fill markers"
       d="m 123.27242,34.840485 c 0,-0.04032 0.0403,-0.120972 0,-0.120972 -0.0403,0 0.01,0.160094 0,0.120972 -0.0484,-0.193587 -0.0309,-0.353747 -0.15122,-0.514138 -0.0765,-0.10197 -0.16199,-0.202486 -0.24195,-0.302434 -0.0356,-0.04453 -0.0916,-0.07207 -0.12097,-0.120973 -0.0164,-0.02734 -0.0138,-0.06339 -0.0302,-0.09073 -0.0598,-0.09976 -0.17151,-0.178279 -0.24194,-0.272193 -0.0398,-0.0531 -0.0539,-0.126177 -0.0907,-0.181459 -0.0494,-0.07413 -0.1727,-0.19418 -0.21171,-0.272193 -0.009,-0.01834 -0.0176,-0.07806 -0.0302,-0.09073 -0.007,-0.0071 -0.0231,0.0071 -0.0302,0 -0.11803,-0.118033 0.007,-0.01625 -0.0302,-0.09073 -0.0221,-0.04411 -0.0484,-0.04838 -0.0605,-0.06049 -0.0324,-0.03245 -0.0605,-0.162637 -0.0605,-0.211704"
       id="path44" />
    <path
       style="fill:none;fill-opacity:1;stroke:#93512d;stroke-width:1;stroke-linecap:round;stroke-linejoin:round;stroke-dasharray:none;stroke-opacity:1;paint-order:stroke fill markers"
       d="m 124.39143,34.17513 c -0.2968,-0.472935 -0.42974,-0.950198 -0.66536,-1.421442 -0.0384,-0.07672 -0.1136,-0.136467 -0.15122,-0.211707 -0.0302,-0.06049 -0.12097,-0.09073 -0.15122,-0.151217 -0.0231,-0.04613 -0.14889,-0.269867 -0.18146,-0.302435"
       id="path45" />
    <path
       style="fill:none;fill-opacity:1;stroke:#93512d;stroke-width:1;stroke-linecap:round;stroke-linejoin:round;stroke-dasharray:none;stroke-opacity:1;paint-order:stroke fill markers"
       d="m 125.38946,33.328312 c -0.056,-0.180787 -0.10419,-0.383108 -0.21171,-0.544383 -0.0311,-0.04671 -0.0668,-0.07314 -0.0907,-0.120972 -0.009,-0.01826 0.014,-0.07675 0,-0.09073 -0.007,-0.0071 -0.0231,0.0071 -0.0302,0 -0.066,-0.06605 -0.006,-0.0491 -0.0302,-0.120973 -0.009,-0.02705 -0.0447,-0.03676 -0.0605,-0.06049 -0.0614,-0.09211 -0.13316,-0.205841 -0.18146,-0.302435 -0.004,-0.009 0.007,-0.02312 0,-0.03024 -0.007,-0.0071 -0.0231,0.0071 -0.0302,0 -0.0143,-0.01426 0.009,-0.04246 0,-0.06049 -0.0128,-0.02551 -0.0477,-0.03499 -0.0605,-0.06049 -0.009,-0.01826 0.014,-0.07675 0,-0.09073 -0.007,-0.0071 -0.0231,0.0071 -0.0302,0 -0.005,-0.0049 -0.0302,-0.119504 -0.0302,-0.151217"
       id="path46" />
    <path
       style="fill:none;fill-opacity:1;stroke:#93512d;stroke-width:1;stroke-linecap:round;stroke-linejoin:round;stroke-dasharray:none;stroke-opacity:1;paint-order:stroke fill markers"
       d="m 126.44798,32.451253 c -0.18392,-0.551773 -0.0259,-0.205161 -0.2117,-0.483896 -0.0528,-0.07928 -0.0113,-0.05285 -0.0605,-0.151218 -0.074,-0.148021 -0.0366,-0.0387 -0.12097,-0.151217 -0.0271,-0.03607 -0.0355,-0.08346 -0.0605,-0.120976 -0.0617,-0.09247 -0.39316,-0.467008 -0.39316,-0.514138"
       id="path47" />
    <path
       style="fill:none;fill-opacity:1;stroke:#93512d;stroke-width:1;stroke-linecap:round;stroke-linejoin:round;stroke-dasharray:none;stroke-opacity:1;paint-order:stroke fill markers"
       d="m 127.38553,31.513705 c 0,-0.04033 0.0403,-0.120976 0,-0.120976 -0.0403,0 0.0181,0.157044 0,0.120976 -0.0549,-0.09872 -0.0393,-0.22987 -0.0907,-0.33268 -0.0419,-0.08386 -0.11605,-0.206779 -0.18146,-0.27219 -0.0159,-0.01593 -0.048,-0.01148 -0.0605,-0.03024 -0.0112,-0.01677 0.009,-0.04245 0,-0.06049 -0.0336,-0.06711 -0.11892,-0.116874 -0.15122,-0.181461 -0.0629,-0.125865 0.002,0.03233 -0.0605,-0.03024 -0.0626,-0.06258 0.0956,0.0024 -0.0302,-0.06049 -0.0249,-0.01246 -0.0425,-0.01228 -0.0605,-0.03024 -0.007,-0.0071 0.007,-0.02313 0,-0.03025 -0.007,-0.0071 -0.0231,0.0071 -0.0303,0 -0.007,-0.0071 0.005,-0.02122 0,-0.03024 -0.0199,-0.03989 -0.16175,-0.211706 -0.18146,-0.211706"
       id="path48" />
    <path
       style="fill:none;fill-opacity:1;stroke:#93512d;stroke-width:1;stroke-linecap:round;stroke-linejoin:round;stroke-dasharray:none;stroke-opacity:1;paint-order:stroke fill markers"
       d="m 128.62551,30.908835 c -0.0504,-0.110894 -0.0935,-0.225427 -0.15122,-0.332679 -0.0169,-0.03131 -0.21489,-0.275378 -0.24194,-0.302434 -0.016,-0.01593 -0.0445,-0.01431 -0.0605,-0.03025 -0.004,-0.0044 -0.18059,-0.20996 -0.18146,-0.211704 -0.004,-0.009 0.007,-0.02312 0,-0.03024 -0.0151,-0.01514 -0.0454,-0.01514 -0.0605,-0.03025 -0.0626,-0.06257 0.0956,0.0024 -0.0302,-0.06049 -0.009,-0.0045 -0.0231,0.0071 -0.0302,0 -0.0101,-0.01008 -0.0202,-0.08065 -0.0302,-0.09073 -0.007,-0.0071 -0.0212,0.0045 -0.0302,0 -0.12587,-0.06293 0.0323,0.0021 -0.0303,-0.06049 -0.0151,-0.01513 -0.0454,-0.01513 -0.0605,-0.03024 -0.0186,-0.01857 -0.02,-0.07048 -0.0605,-0.09073 -0.009,-0.0045 -0.0231,0.0071 -0.0302,0 -0.007,-0.0071 0.007,-0.02313 0,-0.03024 -0.007,-0.0071 -0.0231,0.0071 -0.0303,0 -0.0143,-0.01426 0,-0.04032 0,-0.06049"
       id="path49" />
    <path
       style="fill:none;fill-opacity:1;stroke:#93512d;stroke-width:1;stroke-linecap:round;stroke-linejoin:round;stroke-dasharray:none;stroke-opacity:1;paint-order:stroke fill markers"
       d="m 129.56306,29.880556 c -0.0202,-0.04032 -0.0202,-0.141137 -0.0605,-0.120973 -0.0403,0.02016 0.0887,0.156179 0.0605,0.120973 -0.0908,-0.113533 -0.13914,-0.260114 -0.24195,-0.362921 -0.0257,-0.02569 -0.068,-0.0321 -0.0907,-0.06049 -0.0199,-0.0249 -0.0138,-0.06339 -0.0302,-0.09073 -0.0816,-0.135964 -0.0309,-7.94e-4 -0.12097,-0.09073 -0.15456,-0.154557 0.12681,0.04218 -0.0907,-0.120973 -0.018,-0.01352 -0.0445,-0.01431 -0.0605,-0.03024 -0.0159,-0.01595 -0.0177,-0.04173 -0.0303,-0.06049 -0.0286,-0.04291 -0.0676,-0.03735 -0.0907,-0.06049 -0.007,-0.0071 0.007,-0.02313 0,-0.03025 -0.002,-0.0016 -0.0891,-0.05885 -0.0907,-0.06049 -0.007,-0.0071 0.007,-0.02313 0,-0.03025 -0.007,-0.0071 -0.0231,0.0071 -0.0302,0 -0.005,-0.0054 -0.039,-0.06925 -0.0605,-0.09073"
       id="path50" />
    <path
       style="fill:none;fill-opacity:1;stroke:#93512d;stroke-width:1;stroke-linecap:round;stroke-linejoin:round;stroke-dasharray:none;stroke-opacity:1;paint-order:stroke fill markers"
       d="m 130.24926,28.79645 c -0.0143,-0.01426 -0.0285,-0.05703 -0.0428,-0.04277 -0.0143,0.01426 0.0549,0.0589 0.0428,0.04277 -0.0227,-0.03031 -0.0512,-0.05595 -0.0748,-0.08554 -0.0375,-0.04694 -0.0688,-0.102021 -0.10693,-0.149699 -0.0184,-0.02299 -0.0318,-0.0265 -0.0535,-0.04277 -0.0115,-0.0086 -0.0462,-0.03887 -0.0535,-0.05346 -0.002,-0.0032 0.003,-0.0082 0,-0.01069 -0.003,-0.0026 -0.008,0.0026 -0.0107,0 -0.003,-0.0026 0.002,-0.0075 0,-0.01069 -0.009,-0.01886 -0.0384,-0.03843 -0.0535,-0.05346 -0.015,-0.01503 -0.044,-0.0346 -0.0535,-0.05346 -0.002,-0.0032 0.003,-0.0082 0,-0.01069 -0.006,-0.0056 -0.0157,-0.0051 -0.0214,-0.01069 -0.003,-0.0026 0.003,-0.0082 0,-0.01069 -7.9e-4,-7.94e-4 -0.0184,-0.01069 -0.0214,-0.01069"
       id="path54" />
    <path
       style="fill:none;fill-opacity:1;stroke:#93512d;stroke-width:1;stroke-linecap:round;stroke-linejoin:round;stroke-dasharray:none;stroke-opacity:1;paint-order:stroke fill markers"
       d="m 131.16883,28.347359 c -0.007,-0.02495 -0.0106,-0.05123 -0.0214,-0.07485 -0.0316,-0.06958 -0.1685,-0.212133 -0.23524,-0.256625 -0.0126,-0.0084 -0.015,-0.02567 -0.0214,-0.03208 -0.0243,-0.02426 -0.0688,-0.04129 -0.0855,-0.07485 -0.009,-0.01894 -0.0329,-0.03367 -0.0428,-0.05346 -0.007,-0.01487 -0.008,-0.02968 -0.0214,-0.04277"
       id="path55" />
    <path
       style="fill:none;fill-opacity:1;stroke:#93512d;stroke-width:1;stroke-linecap:round;stroke-linejoin:round;stroke-dasharray:none;stroke-opacity:1;paint-order:stroke fill markers"
       d="m 132.18464,27.973114 c -0.0169,-0.146502 -0.1009,-0.264356 -0.19247,-0.374243 -0.0161,-0.01937 -0.0405,-0.03185 -0.0535,-0.05346 -0.0416,-0.0694 0.0221,7.94e-4 -0.0321,-0.05346 -0.0161,-0.01614 -0.0373,-0.02663 -0.0535,-0.04277 -0.0147,-0.01468 -0.0174,-0.03877 -0.0321,-0.05346 -0.0164,-0.0164 -0.0321,-0.0011 -0.0321,-0.02138"
       id="path56" />
    <path
       style="fill:none;fill-opacity:1;stroke:#93512d;stroke-width:1;stroke-linecap:round;stroke-linejoin:round;stroke-dasharray:none;stroke-opacity:1;paint-order:stroke fill markers"
       d="m 55.154538,82.238486 c 0.281073,-0.683821 0.505593,-1.380813 0.684332,-2.095765 0.04703,-0.188127 0.127479,-0.367072 0.171082,-0.556019"
       id="path61"
       sodipodi:nodetypes="csc" />
    <path
       style="fill:none;fill-opacity:1;stroke:#93512d;stroke-width:1;stroke-linecap:round;stroke-linejoin:round;stroke-dasharray:none;stroke-opacity:1;paint-order:stroke fill markers"
       d="m 56.993678,82.537883 c 0.07804,-0.218348 0.138578,-0.456785 0.171085,-0.684332 0.04683,-0.327787 0.09224,-0.668382 0.171082,-0.983729 0.01728,-0.06916 -0.01172,-0.143539 0,-0.213852 0.01482,-0.08894 0.07072,-0.167685 0.08554,-0.256624 0.05682,-0.34094 0.114093,-0.684575 0.171082,-1.026499 0.01482,-0.08894 0.07072,-0.167682 0.08554,-0.256625"
       id="path62"
       sodipodi:nodetypes="csssssc" />
    <path
       style="fill:none;fill-opacity:1;stroke:#93512d;stroke-width:1;stroke-linecap:round;stroke-linejoin:round;stroke-dasharray:none;stroke-opacity:1;paint-order:stroke fill markers"
       d="m 58.490656,83.00836 c 0.01426,-0.05703 0.0998,-0.156827 0.04277,-0.171083 -0.05703,-0.01426 -0.0646,0.225661 -0.04277,0.171083 0.103011,-0.25753 0.139126,-0.508326 0.213853,-0.769874 0.195696,-0.68493 -0.09217,0.332533 0.04277,-0.342165 0.01767,-0.08842 0.06367,-0.169148 0.08554,-0.256625 0.05757,-0.23029 0.05675,-0.454006 0.08554,-0.684331 0.01154,-0.09228 0.07401,-0.207121 0.08554,-0.299395 0.0071,-0.05659 -0.0071,-0.114495 0,-0.171085 0.02141,-0.171206 0.09085,-0.344683 0.128312,-0.513246 0.105019,-0.472586 -0.01074,0.06459 0.04277,-0.47048 0.02135,-0.21346 0.106815,-0.426595 0.128312,-0.641561 0.0185,-0.185042 0.01651,-0.372258 0.04277,-0.55602 0.01844,-0.129129 0.06407,-0.256098 0.08554,-0.384937"
       id="path65"
       sodipodi:nodetypes="cssssssccssssc" />
    <path
       style="fill:none;fill-opacity:1;stroke:#93512d;stroke-width:1;stroke-linecap:round;stroke-linejoin:round;stroke-dasharray:none;stroke-opacity:1;paint-order:stroke fill markers"
       d="m 59.987632,82.96559 c 0.08554,-0.228111 0.181832,-0.452475 0.256624,-0.684332 0.140648,-0.436007 0.219983,-0.886034 0.342165,-1.325893 0.14565,-0.524338 0.313425,-1.049197 0.427707,-1.582518 0.05695,-0.26575 0.0566,-0.549696 0.128312,-0.812644 0.02021,-0.07407 0.06534,-0.139782 0.08554,-0.213855 0.03061,-0.112257 0.07317,-0.512196 0.08554,-0.598789 0.04067,-0.284691 0.08104,-0.571764 0.128312,-0.855414"
       id="path66"
       sodipodi:nodetypes="cssssssc" />
    <path
       style="fill:none;fill-opacity:1;stroke:#93512d;stroke-width:1;stroke-linecap:round;stroke-linejoin:round;stroke-dasharray:none;stroke-opacity:1;paint-order:stroke fill markers"
       d="m 61.869544,82.794507 c 0.04277,-0.14257 0.08124,-0.286501 0.128313,-0.427709 0.08503,-0.255106 0.101184,-0.190892 0.171082,-0.470477 0.1065,-0.426005 0.172961,-0.861674 0.299394,-1.283123 0.0792,-0.263996 0.18297,-0.534691 0.213855,-0.812644 0.04759,-0.42831 0.0934,-0.855877 0.171082,-1.283121 0.03872,-0.212987 0.101468,-0.426815 0.128313,-0.641561 0.02982,-0.238599 0.03847,-0.491747 0.08554,-0.727102 0.0369,-0.184512 0.09137,-0.371332 0.128312,-0.556022 0.01678,-0.08388 -0.01407,-0.172246 0,-0.256624 0.01482,-0.08894 0.07279,-0.16736 0.08554,-0.256622 0.0141,-0.0988 -0.01958,-0.201536 0,-0.299398 0.01733,-0.08664 0.06403,-0.170579 0.08554,-0.256624 0.02934,-0.117346 -0.0149,-0.265758 0,-0.384935 0.01601,-0.128148 0.04277,-0.213431 0.04277,-0.342167"
       id="path67" />
    <path
       style="fill:none;fill-opacity:1;stroke:#93512d;stroke-width:1;stroke-linecap:round;stroke-linejoin:round;stroke-dasharray:none;stroke-opacity:1;paint-order:stroke fill markers"
       d="m 63.836996,83.051129 c 0.142267,-0.219866 0.09166,-0.488838 0.171085,-0.727101 0.02016,-0.06049 0.06538,-0.110596 0.08554,-0.171082 0.07706,-0.231164 0.07373,-0.490556 0.128312,-0.727104 0.04668,-0.202266 0.120738,-0.397404 0.171083,-0.598789 0.04585,-0.183383 0.04945,-0.375571 0.08554,-0.55602 0.01982,-0.09909 0.06572,-0.20031 0.08554,-0.299394 0.02797,-0.139843 0.025,-0.285668 0.04277,-0.42771 0.05313,-0.425 0.04024,0.113361 0.08554,-0.384937 0.02625,-0.288864 0.04454,-0.568446 0.08554,-0.855414 0.06314,-0.441997 -0.07951,0.257194 0,-0.299394 0.0064,-0.04463 0.03536,-0.08384 0.04277,-0.128312 0.02313,-0.138716 -0.02312,-0.288992 0,-0.427707 0.16242,-0.974519 0.128313,-1.992665 0.128313,-2.993954"
       id="path68" />
    <path
       style="fill:none;fill-opacity:1;stroke:#93512d;stroke-width:1;stroke-linecap:round;stroke-linejoin:round;stroke-dasharray:none;stroke-opacity:1;paint-order:stroke fill markers"
       d="m 65.590597,82.794507 c 0.02851,-0.05703 0.14257,-0.14257 0.08554,-0.171084 -0.05703,-0.02851 -0.09805,0.233603 -0.08554,0.171084 0.03273,-0.163634 0.14365,-0.305876 0.171084,-0.470479 0.0094,-0.05625 -0.0081,-0.114628 0,-0.171082 0.02051,-0.143616 0.0998,-0.285163 0.128313,-0.427707 0.0056,-0.02796 0,-0.05703 0,-0.08554 0,-0.04277 -0.0084,-0.08637 0,-0.128312 0.0062,-0.03126 0.03652,-0.05428 0.04277,-0.08554 0.03705,-0.185256 0.05445,-0.369472 0.08554,-0.55602 0.02893,-0.173603 0.0994,-0.339754 0.128312,-0.513249 0.03745,-0.224732 0.01077,-0.460375 0.04277,-0.684331 0.03709,-0.259607 0.09162,-0.512996 0.128313,-0.769872 0.03211,-0.224774 0.0053,-0.459724 0.04277,-0.684334 0.01638,-0.09822 0.07085,-0.282072 0.08554,-0.384934 0.01614,-0.112911 -0.01415,-0.228992 0,-0.342167 0.01458,-0.116658 0.06891,-0.225783 0.08554,-0.342165 0.05086,-0.356028 -0.0019,-0.711925 0.04277,-1.069268 0.04952,-0.396156 0.124024,-1.039363 0,-1.411436 -0.06021,-0.180615 0.09869,-0.500094 -0.04277,-0.641562"
       id="path70" />
    <path
       style="fill:none;fill-opacity:1;stroke:#93512d;stroke-width:1;stroke-linecap:round;stroke-linejoin:round;stroke-dasharray:none;stroke-opacity:1;paint-order:stroke fill markers"
       d="m 67.472509,82.708965 c 0.04032,-0.147513 -0.02519,-0.319379 0,-0.470479 0.02394,-0.143627 0.06161,-0.284081 0.08554,-0.427707 0.02535,-0.152038 -0.0302,-0.319456 0,-0.470477 0.0062,-0.03126 0.03504,-0.05461 0.04277,-0.08554 0.03996,-0.159848 -0.02708,-0.350758 0,-0.513249 0.0074,-0.04447 0.03536,-0.08384 0.04277,-0.128312 0.03468,-0.208074 -0.03468,-0.433486 0,-0.641559 0.0074,-0.04447 0.03639,-0.08368 0.04277,-0.128313 0.0717,-0.501909 -0.0833,-1.039921 0,-1.539748 0.0074,-0.04447 0.03393,-0.0841 0.04277,-0.128312 0.0329,-0.164502 -0.0329,-0.348744 0,-0.513249 0.0062,-0.03126 0.03652,-0.05428 0.04277,-0.08554 0.0263,-0.131511 0,-0.293148 0,-0.427707 0,-0.285139 0,-0.570277 0,-0.855416 0,-0.898187 0,-1.79637 0,-2.694557"
       id="path71" />
    <path
       style="fill:none;fill-opacity:1;stroke:#93512d;stroke-width:1;stroke-linecap:round;stroke-linejoin:round;stroke-dasharray:none;stroke-opacity:1;paint-order:stroke fill markers"
       d="m 69.397194,82.49511 c 0.0024,-1.181864 -0.172813,-2.333818 -0.256625,-3.5072 -0.0405,-0.567058 0.02016,-1.145696 0.04277,-1.71083 0.01704,-0.426254 0,-0.856441 0,-1.283121 0,-0.185684 -0.02654,-0.412985 0,-0.598792 0.0064,-0.04463 0.03393,-0.0841 0.04277,-0.128309 0.05015,-0.250738 0,-0.954061 0,-1.240354 0,-0.106627 0.04125,-0.473511 0,-0.556019 -0.05285,-0.105704 -0.04277,0.01476 -0.04277,-0.08554"
       id="path72" />
    <path
       style="fill:none;fill-opacity:1;stroke:#93512d;stroke-width:1;stroke-linecap:round;stroke-linejoin:round;stroke-dasharray:none;stroke-opacity:1;paint-order:stroke fill markers"
       d="m 71.129408,82.40957 c -0.01865,-0.147624 0.01643,-0.301222 0,-0.449093 -0.03917,-0.352538 -0.02138,-0.713308 -0.02138,-1.069268 0,-0.152443 0.01521,-0.318318 0,-0.47048 -0.0029,-0.02924 -0.01812,-0.05633 -0.02138,-0.08554 -0.01331,-0.119709 0.0109,-0.243579 0,-0.363551 -0.0033,-0.0362 -0.0181,-0.07073 -0.02138,-0.106929 -0.02609,-0.286877 0,-0.588777 0,-0.8768 0,-0.17444 -0.009,-0.33996 -0.02138,-0.513249 -0.0096,-0.134043 0.01484,-0.272762 0,-0.406321 -0.01664,-0.149717 -0.02779,-0.29926 -0.04277,-0.449093 -0.01765,-0.176448 0.01765,-0.358188 0,-0.534633 -0.03273,-0.327329 -0.03902,-0.658072 -0.08554,-0.983729 -0.0223,-0.156191 0,-0.334219 0,-0.491863 0,-0.185563 -0.02625,-0.393732 0,-0.577405 0.0042,-0.0291 0.01773,-0.05638 0.02138,-0.08554 0.01468,-0.117375 -0.02318,-0.247632 0,-0.363553 0.03945,-0.197247 0.04277,-0.395071 0.04277,-0.59879"
       id="path73" />
    <path
       style="fill:none;fill-opacity:1;stroke:#93512d;stroke-width:1;stroke-linecap:round;stroke-linejoin:round;stroke-dasharray:none;stroke-opacity:1;paint-order:stroke fill markers"
       d="m 72.690539,82.430954 c -0.0081,-0.299738 -0.0084,-0.598543 -0.02138,-0.898184 -0.02111,-0.48532 -0.04277,-0.967787 -0.04277,-1.454205 0,-0.154805 -0.01103,-0.316018 0,-0.47048 0.01677,-0.234664 0.05177,-0.470273 0.06416,-0.705715 0.0038,-0.07119 -0.0036,-0.142658 0,-0.213855 0.0036,-0.07155 0.01426,-0.142568 0.02138,-0.213854 0.0071,-0.08554 0.01749,-0.170873 0.02138,-0.256625 0.0074,-0.163785 -0.0063,-0.328028 0,-0.491863 0.0036,-0.09287 0.01717,-0.185161 0.02138,-0.278008 0.01032,-0.227187 -0.01619,-0.45751 0,-0.684332 0.0036,-0.05028 0.01781,-0.09942 0.02138,-0.149698 0.02617,-0.366388 0,-0.74453 0,-1.112039 0,-0.541763 0,-1.083527 0,-1.625288"
       id="path74" />
    <path
       style="fill:none;fill-opacity:1;stroke:#93512d;stroke-width:1;stroke-linecap:round;stroke-linejoin:round;stroke-dasharray:none;stroke-opacity:1;paint-order:stroke fill markers"
       d="m 74.3586,82.195716 c 0.04826,-0.101619 0.02199,-0.216922 0.04277,-0.320781 0.0031,-0.01564 0.01876,-0.02705 0.02138,-0.04277 0.0094,-0.05625 -0.0057,-0.11434 0,-0.171082 0.0043,-0.04315 0.01805,-0.08508 0.02138,-0.128313 0.0013,-0.01648 -0.0026,-0.245036 0,-0.278011 0.0039,-0.05026 0.01781,-0.09942 0.02138,-0.149698 0.0091,-0.126921 -0.01405,-0.258464 0,-0.384934 0.0033,-0.02921 0.01815,-0.05633 0.02138,-0.08554 0.02188,-0.196884 -0.01413,-0.401156 0,-0.598789 0.0036,-0.05028 0.01805,-0.0994 0.02138,-0.149699 0.02397,-0.359687 0,-0.730072 0,-1.090654 0,-0.282967 0.01765,-0.572993 0,-0.855414 -0.02387,-0.382035 -0.03806,-0.771232 -0.02138,-1.154811 0.01212,-0.278614 0.02138,-0.55472 0.02138,-0.834028 0,-0.160483 -0.01773,-0.332401 0,-0.491865 0.0033,-0.02921 0.01722,-0.05644 0.02138,-0.08554 0.0213,-0.149159 0,-0.319262 0,-0.47048 0,-0.08392 -0.02043,-0.196336 0,-0.278008 0.01812,-0.07254 0.02138,-0.136276 0.02138,-0.213855"
       id="path75" />
    <path
       style="fill:none;fill-opacity:1;stroke:#93512d;stroke-width:1;stroke-linecap:round;stroke-linejoin:round;stroke-dasharray:none;stroke-opacity:1;paint-order:stroke fill markers"
       d="m 76.432981,82.024633 c 0.01426,-0.07128 0.03588,-0.141485 0.04277,-0.213854 0.0074,-0.07806 -0.0041,-0.156935 0,-0.235239 0.003,-0.05739 0.0182,-0.113699 0.02138,-0.171082 0.015,-0.27005 -0.015,-0.542597 0,-0.812644 0.0036,-0.06445 0.01799,-0.128008 0.02138,-0.192468 0.02096,-0.398092 -0.02096,-0.799492 0,-1.197581 0.0034,-0.06446 0.01736,-0.128043 0.02138,-0.192469 0.02739,-0.438224 0,-0.886587 0,-1.325893 0,-0.32562 0.02445,-0.662839 -0.02138,-0.983726 -0.01037,-0.07256 0,-0.163184 0,-0.235241 0,-0.163954 0,-0.327909 0,-0.491863 0,-0.460854 -0.02138,-0.906756 -0.02138,-1.368663"
       id="path76" />
    <path
       style="fill:none;fill-opacity:1;stroke:#93512d;stroke-width:1;stroke-linecap:round;stroke-linejoin:round;stroke-dasharray:none;stroke-opacity:1;paint-order:stroke fill markers"
       d="m 78.250737,82.003247 c 0.01712,-0.214741 0.04288,-0.428799 0.06416,-0.641561 0.01691,-0.169175 -0.01061,-0.343543 0,-0.513247 0.004,-0.06443 0.01799,-0.128008 0.02138,-0.192469 0.0284,-0.539493 -0.007,-1.088802 -0.04277,-1.625287 -0.01273,-0.190995 0.01905,-0.386983 0,-0.577406 -0.0029,-0.02925 -0.01815,-0.05633 -0.02138,-0.08554 -0.01561,-0.140552 -0.0074,-0.30938 0,-0.449094 0.0083,-0.1579 0.02331,-0.314748 0.04277,-0.470476 0.01638,-0.130948 -0.0259,-0.276868 0,-0.406324 0.0031,-0.01564 0.01876,-0.02705 0.02138,-0.04277 0.01511,-0.09071 0.01304,-0.186222 0.02138,-0.278011 0.0011,-0.08049 0.03484,-0.155935 0.04277,-0.235239 0.0035,-0.03547 -0.0032,-0.07143 0,-0.106926 0.01638,-0.180102 0.06567,-0.35578 0.08554,-0.534635 0.0063,-0.05668 -0.0081,-0.114629 0,-0.171083 0.0032,-0.0223 0.01767,-0.04192 0.02138,-0.06416 0.01042,-0.06245 -0.0089,-0.129762 0,-0.192468 0.0042,-0.0291 0.01773,-0.05638 0.02138,-0.08554 0.02016,-0.161227 -0.02296,-0.331076 0,-0.491866 0.0032,-0.0223 0.0182,-0.04184 0.02138,-0.06416 0.01384,-0.09693 -0.01918,-0.203507 0,-0.299395 0.0031,-0.01564 0.01752,-0.02731 0.02138,-0.04277 0.02572,-0.102863 0,-0.479955 0,-0.620176"
       id="path77" />
    <path
       style="fill:none;fill-opacity:1;stroke:#93512d;stroke-width:1;stroke-linecap:round;stroke-linejoin:round;stroke-dasharray:none;stroke-opacity:1;paint-order:stroke fill markers"
       d="m 67.185886,21.30653 c 0.04368,0.30573 0.05919,0.484251 0.120975,0.756087 0.05463,0.24036 0.101518,0.488165 0.166339,0.725844 0.0071,0.02619 0.02365,0.04927 0.03024,0.07561 0.01728,0.06916 0.01852,0.14139 0.03024,0.211705 0.01506,0.09027 0.03625,0.181035 0.04537,0.272191 0.01148,0.114917 0.0024,0.233142 0.01513,0.3478 0.0024,0.02066 0.01283,0.03983 0.01513,0.06049 0.0098,0.08801 -0.01736,0.185424 0,0.272192 0.0021,0.01106 0.01291,0.01918 0.01513,0.03024 0.0096,0.04788 0,0.119115 0,0.166341 0,0.131053 0,0.262109 0,0.393165"
       id="path78" />
    <path
       style="fill:none;fill-opacity:1;stroke:#93512d;stroke-width:1;stroke-linecap:round;stroke-linejoin:round;stroke-dasharray:none;stroke-opacity:1;paint-order:stroke fill markers"
       d="m 68.652696,21.291409 c 0.01008,0.216744 0.01958,0.433517 0.03024,0.650234 0.0072,0.145665 0.01013,0.282593 0.03025,0.423409 0.01974,0.138172 -0.01389,0.284464 0,0.423409 0.0066,0.06569 0.01482,0.134881 0.03024,0.196582 0.0177,0.07085 0,0.168443 0,0.241948 0,0.137013 0.01514,0.270372 0.01514,0.408287"
       id="path79" />
    <path
       style="fill:none;fill-opacity:1;stroke:#93512d;stroke-width:1;stroke-linecap:round;stroke-linejoin:round;stroke-dasharray:none;stroke-opacity:1;paint-order:stroke fill markers"
       d="m 70.164869,21.019217 c 0.0783,0.410861 0.07561,0.802769 0.07561,1.209739 0,0.05265 0.0075,0.114172 0,0.166339 -0.0029,0.02057 -0.01008,0.04032 -0.01511,0.06049 0,0.04537 0.0053,0.09104 0,0.136096 -0.0048,0.04128 -0.02474,0.07977 -0.03024,0.120974 -0.0122,0.09141 0,0.19392 0,0.287313"
       id="path80" />
    <path
       style="fill:none;fill-opacity:1;stroke:#93512d;stroke-width:1;stroke-linecap:round;stroke-linejoin:round;stroke-dasharray:none;stroke-opacity:1;paint-order:stroke fill markers"
       d="m 71.661921,20.988974 c 0.02143,0.253989 0.08057,0.525286 0.06049,0.78633 -0.0058,0.07605 -0.02439,0.150773 -0.03024,0.226826 -0.0084,0.109104 0,0.223097 0,0.332679"
       id="path81" />
    <path
       style="fill:none;fill-opacity:1;stroke:#93512d;stroke-width:1;stroke-linecap:round;stroke-linejoin:round;stroke-dasharray:none;stroke-opacity:1;paint-order:stroke fill markers"
       d="m 73.064785,21.033562 c 0.0036,0.110491 0.0081,0.220955 0.01069,0.331473 0.0016,0.06414 -0.0071,0.128705 0,0.192469 0.0013,0.0112 0.0091,0.02092 0.01069,0.03208 0.003,0.02117 -0.0052,0.04341 0,0.06416 0.01291,0.05167 0.01995,0.126272 0.01069,0.181775 -0.006,0.03575 -0.01069,0.05927 -0.01069,0.09624"
       id="path82" />
    <path
       style="fill:none;fill-opacity:1;stroke:#93512d;stroke-width:1;stroke-linecap:round;stroke-linejoin:round;stroke-dasharray:none;stroke-opacity:1;paint-order:stroke fill markers"
       d="m 74.262366,20.402694 c 0.06792,0.315396 0.03208,0.633814 0.03208,0.951649"
       id="path83" />
    <path
       style="fill:none;fill-opacity:1;stroke:#93512d;stroke-width:1;stroke-linecap:round;stroke-linejoin:round;stroke-dasharray:none;stroke-opacity:1;paint-order:stroke fill markers"
       d="m 80.303732,80.891209 c 0.01426,-0.06416 0.03408,-0.127323 0.04277,-0.192469 0.0057,-0.0424 -0.0035,-0.08569 0,-0.128312 0.0036,-0.04321 0.01828,-0.08506 0.02138,-0.128312 0.01863,-0.260623 0,-0.529773 0,-0.791258 0,-0.24734 0.01762,-0.501983 0,-0.748488 -0.03218,-0.450495 -0.0621,-0.898988 -0.106929,-1.347279 -0.01315,-0.131511 0,-0.274246 0,-0.406321 0,-0.400717 0.03634,-0.761164 0.08554,-1.154811 0.01286,-0.102775 0,-0.217284 0,-0.320781 0,-0.199596 0,-0.399192 0,-0.598789 0,-0.09963 0.02716,-0.53871 0,-0.620178 -0.005,-0.01513 -0.01635,-0.02765 -0.02138,-0.04277 -0.0085,-0.0254 0.01709,-0.08984 0,-0.106926 -0.02851,-0.02851 -0.02138,0.03564 -0.02138,-0.02138"
       id="path84" />
    <path
       style="fill:none;fill-opacity:1;stroke:#93512d;stroke-width:1;stroke-linecap:round;stroke-linejoin:round;stroke-dasharray:none;stroke-opacity:1;paint-order:stroke fill markers"
       d="m 81.993176,74.026504 c -0.0058,0.400198 0.0016,0.801235 0.06416,1.197581 0.01024,0.06492 0.03551,0.127151 0.04277,0.192469 0.0071,0.06376 -0.004,0.128436 0,0.192468 0.01159,0.18532 0.05437,0.370126 0.06416,0.556019 0.0114,0.216435 0.0019,0.448001 0.02138,0.662948 0.0072,0.07937 0.03521,0.155898 0.04277,0.235239 0.0024,0.02432 -0.0021,0.370898 0,0.40632 0.0034,0.05737 0.01781,0.113726 0.02138,0.171085 0.0098,0.156054 -0.01199,0.31459 0,0.470477 0.0033,0.04323 0.01778,0.0851 0.02138,0.128312 0.0177,0.212413 -0.01635,0.429027 0,0.641562 0.0039,0.05026 0.0172,0.09946 0.02138,0.149699 0.0071,0.08524 -0.0066,0.171333 0,0.256622 0.0099,0.128632 0.03109,0.256402 0.04277,0.384937 0.02699,0.296873 0,0.639429 0,0.940956 0,0.08878 -0.02432,0.354788 0,0.427707 0.0024,0.0068 0.01426,0 0.02138,0"
       id="path85" />
    <path
       style="fill:none;fill-opacity:1;stroke:#93512d;stroke-width:1;stroke-linecap:round;stroke-linejoin:round;stroke-dasharray:none;stroke-opacity:1;paint-order:stroke fill markers"
       d="m 83.618463,80.69874 c 0.03564,-0.163954 0.07777,-0.326633 0.106926,-0.491863 0.01998,-0.113194 0.03133,-0.227793 0.04277,-0.342167 0.0064,-0.06384 -0.0071,-0.128704 0,-0.192468 0.01193,-0.107371 0.03202,-0.213326 0.04277,-0.320781 0.01267,-0.12677 -0.0158,-0.258564 0,-0.384935 0.04341,-0.34726 0.04277,-0.694274 0.04277,-1.047885 0,-0.302254 0.02736,-0.618667 0,-0.919569 -0.02781,-0.305936 -0.05775,-0.613807 -0.08554,-0.91957 -0.01093,-0.120193 0.01093,-0.243362 0,-0.363554 -0.0079,-0.08637 -0.03557,-0.170201 -0.04277,-0.256624 -0.02148,-0.257758 -0.0277,-0.514681 -0.06416,-0.769872 -0.0118,-0.0827 0.0265,-0.374713 0,-0.427707 -0.04228,-0.08456 -0.02138,-0.220551 -0.02138,-0.320781"
       id="path86" />
    <path
       style="fill:none;fill-opacity:1;stroke:#93512d;stroke-width:1;stroke-linecap:round;stroke-linejoin:round;stroke-dasharray:none;stroke-opacity:1;paint-order:stroke fill markers"
       d="m 85.498312,80.266191 c -0.105529,-0.361807 0.0065,-0.751162 -0.03024,-1.11901 -0.08446,-0.844563 -0.09073,-1.687443 -0.09073,-2.540452 0,-0.312515 0,-0.625031 0,-0.937546 0,-0.123457 -0.02032,-0.271193 0,-0.393165 0.04059,-0.243581 0.03024,-0.476256 0.03024,-0.725845 0,-0.07084 -0.03222,-0.238001 0,-0.302435 0.03752,-0.07504 0.03025,-0.150937 0.03025,-0.241948"
       id="path87" />
    <path
       style="fill:none;fill-opacity:1;stroke:#93512d;stroke-width:1;stroke-linecap:round;stroke-linejoin:round;stroke-dasharray:none;stroke-opacity:1;paint-order:stroke fill markers"
       d="m 87.373409,79.752051 c -0.09006,-0.823019 0.02127,-1.655805 -0.03024,-2.479964 -0.03003,-0.480555 -0.02669,-0.01426 -0.06049,-0.453652 -0.01323,-0.171844 -0.01463,-0.342564 -0.03025,-0.514141 -0.01865,-0.205298 -0.08749,-0.403968 -0.120972,-0.604869 -0.01146,-0.06866 0.01146,-0.143042 0,-0.211704 -0.01304,-0.07824 -0.04424,-0.160692 -0.06049,-0.241948 -0.01892,-0.09462 -0.01963,-1.040479 0,-1.119008 0.02524,-0.100999 0.0059,-0.205115 0.03024,-0.302434 0.01061,-0.04239 0.03025,-0.0381 0.03025,-0.09073"
       id="path88" />
    <path
       style="fill:none;fill-opacity:1;stroke:#93512d;stroke-width:1;stroke-linecap:round;stroke-linejoin:round;stroke-dasharray:none;stroke-opacity:1;paint-order:stroke fill markers"
       d="m 89.12753,79.358888 c 0.12342,-0.915612 0.156898,-1.856071 0.09073,-2.782401 -0.0094,-0.13226 -0.04948,-0.261027 -0.06049,-0.393166 -0.0226,-0.27111 -0.02678,-0.546922 -0.06049,-0.816572 -0.02257,-0.180547 -0.06049,-0.362707 -0.06049,-0.544383 0,-0.05041 0,-0.100812 0,-0.151218 0,-0.09837 0.0093,-0.162848 -0.03024,-0.241948 -0.03599,-0.07198 0,-0.44545 0,-0.544383 0,-0.04332 -0.02503,-0.151217 0.03024,-0.151217"
       id="path89" />
    <path
       style="fill:none;fill-opacity:1;stroke:#93512d;stroke-width:1;stroke-linecap:round;stroke-linejoin:round;stroke-dasharray:none;stroke-opacity:1;paint-order:stroke fill markers"
       d="m 91.093355,78.814505 c -0.157609,-0.956487 -0.151217,-1.927805 -0.151217,-2.903376 0,-0.217308 -0.03844,-0.684837 0,-0.87706 0.0044,-0.02212 0.02582,-0.03838 0.03024,-0.06049 0.02688,-0.134379 -0.0332,-0.2906 0,-0.42341 0.06328,-0.253122 0.03025,-0.550363 0.03025,-0.816573"
       id="path90" />
    <path
       style="fill:none;fill-opacity:1;stroke:#93512d;stroke-width:1;stroke-linecap:round;stroke-linejoin:round;stroke-dasharray:none;stroke-opacity:1;paint-order:stroke fill markers"
       d="m 92.847476,78.058416 c 0.04275,-0.287309 -0.05468,-0.724652 0,-0.998035 0.0044,-0.02209 0.02654,-0.03825 0.03024,-0.06049 0.04251,-0.255026 -0.0425,-0.531304 0,-0.786328 0.0052,-0.03145 0.025,-0.05929 0.03025,-0.09073 0.01632,-0.09802 -0.01405,-0.204062 0,-0.302435 0.0045,-0.03156 0.02574,-0.05917 0.03024,-0.09073 0.0114,-0.07984 -0.0114,-0.162111 0,-0.241949 0.0045,-0.03156 0.0263,-0.0591 0.03024,-0.09073 0.01987,-0.158871 -0.01767,-0.324739 0,-0.483896 0.0057,-0.05109 0.02387,-0.100208 0.03024,-0.151217 0.02344,-0.187476 -0.03104,-0.388372 0,-0.574625 0.04917,-0.295 0.03024,-0.604615 0.03024,-0.907304"
       id="path91" />
    <path
       style="fill:none;fill-opacity:1;stroke:#93512d;stroke-width:1;stroke-linecap:round;stroke-linejoin:round;stroke-dasharray:none;stroke-opacity:1;paint-order:stroke fill markers"
       d="m 94.480625,77.272087 c 0.015,-0.109003 -0.01365,-0.223504 0,-0.332679 0.0052,-0.04124 0.02567,-0.07966 0.03024,-0.120973 0.01659,-0.149389 -0.0136,-0.303929 0,-0.453652 0.01677,-0.184515 0.03024,-0.358251 0.03024,-0.544383 0,-0.201242 -0.03318,-0.436025 0,-0.635113 0.01863,-0.111681 0.03825,-0.221494 0.06049,-0.332679 0.01175,-0.05876 -0.02648,-0.158743 0,-0.211704 0.02839,-0.05679 0.0468,-0.143267 0.06049,-0.211704 0.01333,-0.06663 -0.01651,-0.145695 0,-0.211704 0.0055,-0.02188 0.02582,-0.03838 0.03024,-0.06049 0.03659,-0.182959 -0.01164,-0.39548 0.03024,-0.604869 0.03653,-0.182655 0,-0.416454 0,-0.604869 0,-0.02016 0.01426,-0.04623 0,-0.06049 -0.02817,-0.02817 -0.03024,0.0024 -0.03024,-0.06049"
       id="path92" />
    <path
       style="fill:none;fill-opacity:1;stroke:#93512d;stroke-width:1;stroke-linecap:round;stroke-linejoin:round;stroke-dasharray:none;stroke-opacity:1;paint-order:stroke fill markers"
       d="m 95.992801,76.42527 c 0,0.03607 0,-0.180933 0,-0.453652 0,-0.18863 -0.03779,-0.718347 0,-0.907307 0.0044,-0.02209 0.02477,-0.03862 0.03024,-0.06049 0.01638,-0.06549 -0.01318,-0.145788 0,-0.211704 0.0044,-0.02209 0.02582,-0.03838 0.03024,-0.06049 0.0324,-0.161983 0.05098,-0.324887 0.09073,-0.483897 0.01132,-0.04534 -0.01476,-0.106926 0,-0.151217 0.0045,-0.01352 0.02574,-0.01672 0.03024,-0.03024 0.01275,-0.03825 -0.0098,-0.08185 0,-0.120972 0.01794,-0.07178 0.04254,-0.139912 0.06049,-0.211704 0.02043,-0.08168 -0.01019,-0.190603 0,-0.272193 -0.0051,-0.07692 0.05011,-0.139049 0.06049,-0.211703 0.0099,-0.06916 -0.0099,-0.142547 0,-0.211704 0.04545,-0.318154 0.06049,-0.580628 0.06049,-0.907304"
       id="path93" />
    <path
       style="fill:none;fill-opacity:1;stroke:#93512d;stroke-width:1;stroke-linecap:round;stroke-linejoin:round;stroke-dasharray:none;stroke-opacity:1;paint-order:stroke fill markers"
       d="m 97.550339,75.412111 c 0.0069,-0.837996 -0.01513,-1.672645 -0.01513,-2.510208 0,-0.137805 -0.0013,-0.256042 -0.01511,-0.393165 -0.0065,-0.06541 0.0055,-0.119544 -0.01513,-0.181459 -0.01373,-0.04117 0.01873,-0.08713 -0.01511,-0.120976"
       id="path94" />
    <path
       style="fill:none;fill-opacity:1;stroke:#93512d;stroke-width:1;stroke-linecap:round;stroke-linejoin:round;stroke-dasharray:none;stroke-opacity:1;paint-order:stroke fill markers"
       d="m 99.21373,74.640904 c 0.0098,-0.218266 -0.01225,-0.434189 -0.03024,-0.650235 -0.0099,-0.118994 0,-0.243575 0,-0.362921 0,-0.114504 -0.0088,-0.233627 0,-0.3478 0.0024,-0.03057 0.01257,-0.06018 0.01513,-0.09073 0.0091,-0.10908 0,-0.223089 0,-0.332679 0,-0.05543 0.0079,-0.126082 0,-0.181459 -0.01569,-0.109808 -0.03149,-0.221705 -0.04536,-0.332679 -0.0052,-0.04125 -0.02437,-0.07982 -0.03025,-0.120973 -0.0071,-0.04954 -0.0069,-0.101941 -0.01511,-0.151217 -0.0076,-0.04555 -0.02373,-0.09044 -0.03024,-0.136097 -0.007,-0.04919 0.0082,-0.102208 0,-0.151217 -0.01902,-0.114102 -0.01513,-0.216199 -0.01513,-0.332679"
       id="path95" />
    <path
       style="fill:none;fill-opacity:1;stroke:#93512d;stroke-width:1;stroke-linecap:round;stroke-linejoin:round;stroke-dasharray:none;stroke-opacity:1;paint-order:stroke fill markers"
       d="m 100.63517,73.582383 c -0.0636,-0.33373 -0.0907,-0.671304 -0.0907,-1.013156 0,-0.114348 -0.009,-0.233675 0,-0.3478 0.003,-0.03554 0.0122,-0.07033 0.0151,-0.105855 0.005,-0.05701 -0.0113,-0.124793 0,-0.181459 0.0111,-0.05548 0.0221,-0.109656 0.0302,-0.166341 0.0152,-0.10605 0,-0.225382 0,-0.332676 0,-0.07744 0.0176,-0.2017 0,-0.272193 -0.003,-0.01093 -0.0129,-0.01918 -0.0151,-0.03024 -0.0139,-0.06974 0.014,-0.02098 0,-0.09073 -0.002,-0.01106 -0.0129,-0.01918 -0.0151,-0.03024 -0.004,-0.01976 0.009,-0.04245 0,-0.06049 -0.0119,-0.02379 -0.0151,-0.01714 -0.0151,-0.04537"
       id="path96" />
    <path
       style="fill:none;fill-opacity:1;stroke:#93512d;stroke-width:1;stroke-linecap:round;stroke-linejoin:round;stroke-dasharray:none;stroke-opacity:1;paint-order:stroke fill markers"
       d="m 101.98849,72.764767 c 0.0555,-0.352128 0.0428,-0.711695 0.0428,-1.069268 0,-0.122457 0.0202,-0.264039 0,-0.384935 -0.0178,-0.106518 -0.025,-0.214262 -0.0428,-0.32078 -0.0124,-0.07449 0.0183,-0.161904 0,-0.235242 -0.0114,-0.04569 -0.0214,-0.05976 -0.0214,-0.106926"
       id="path97" />
    <path
       style="fill:none;fill-opacity:1;stroke:#93512d;stroke-width:1;stroke-linecap:round;stroke-linejoin:round;stroke-dasharray:none;stroke-opacity:1;paint-order:stroke fill markers"
       d="m 103.18608,71.631345 c 0.007,-0.292298 0.0582,-0.60697 0,-0.898186 -0.008,-0.04015 0.0128,-0.08978 0,-0.128312 -0.0187,-0.05616 -0.0285,-0.113771 -0.0428,-0.171083 -0.0115,-0.04586 0.0214,-0.128201 0,-0.171085 -0.0216,-0.04321 -0.0214,-0.07516 -0.0214,-0.128312"
       id="path98" />
    <path
       style="fill:none;fill-opacity:1;stroke:#93512d;stroke-width:1;stroke-linecap:round;stroke-linejoin:round;stroke-dasharray:none;stroke-opacity:1;paint-order:stroke fill markers"
       d="m 104.53335,70.968397 c 0,-0.02851 0.0285,-0.08554 0,-0.08554 -0.0285,0 0,0.114056 0,0.08554 0,-0.122465 -0.003,-0.191929 -0.0214,-0.299394 -0.0233,-0.139848 -0.0523,-0.273193 -0.0855,-0.406324 -0.0117,-0.04696 0.0118,-0.102732 0,-0.149696 -0.008,-0.03093 -0.0365,-0.05428 -0.0428,-0.08554 -0.011,-0.05483 0.011,-0.116247 0,-0.171082 -0.006,-0.03126 -0.035,-0.05461 -0.0428,-0.08554 -0.005,-0.02074 0.01,-0.04503 0,-0.06416 -0.018,-0.03599 -0.0214,-0.04156 -0.0214,-0.08554"
       id="path99" />
    <path
       style="fill:none;fill-opacity:1;stroke:#93512d;stroke-width:1;stroke-linecap:round;stroke-linejoin:round;stroke-dasharray:none;stroke-opacity:1;paint-order:stroke fill markers"
       d="m 105.9234,69.941899 c -0.0143,-0.02851 -0.0143,-0.0998 -0.0428,-0.08554 -0.0285,0.01426 0.057,0.114054 0.0428,0.08554 -0.003,-0.0066 -0.095,-0.175615 -0.10692,-0.235239 -0.004,-0.02098 0.008,-0.0443 0,-0.06416 -0.007,-0.01871 -0.0316,-0.02601 -0.0428,-0.04277 -0.0119,-0.01781 0.007,-0.04387 0,-0.06416 -0.003,-0.0096 -0.0189,-0.01162 -0.0214,-0.02138 -0.005,-0.02074 0.004,-0.04319 0,-0.06416 -0.003,-0.01564 -0.0143,-0.02851 -0.0214,-0.04277 -0.007,-0.02138 -0.0177,-0.04192 -0.0214,-0.06416 -0.0111,-0.06689 -0.0218,-0.108082 -0.0428,-0.171082 -0.0147,-0.04412 -0.002,-0.154464 -0.0214,-0.192468 -0.0252,-0.0503 -0.0428,-0.08788 -0.0428,-0.149699"
       id="path100" />
    <path
       style="fill:none;fill-opacity:1;stroke:#93512d;stroke-width:1;stroke-linecap:round;stroke-linejoin:round;stroke-dasharray:none;stroke-opacity:1;paint-order:stroke fill markers"
       d="m 107.12098,69.022329 c -0.007,-0.03564 0.0143,-0.114054 -0.0214,-0.106926 -0.0356,0.0071 0.0376,0.139438 0.0214,0.106926 -0.0431,-0.08626 -0.0746,-0.223655 -0.10692,-0.320781 -0.005,-0.01601 -0.0163,-0.08048 -0.0214,-0.08554 -0.005,-0.0051 -0.0163,0.005 -0.0214,0 -0.0101,-0.01008 0.0101,-0.03269 0,-0.04277 -0.005,-0.005 -0.0164,0.005 -0.0214,0 -0.0134,-0.01339 8e-4,-0.0419 -0.0214,-0.06416"
       id="path101" />
    <path
       style="fill:none;fill-opacity:1;stroke:#93512d;stroke-width:1;stroke-linecap:round;stroke-linejoin:round;stroke-dasharray:none;stroke-opacity:1;paint-order:stroke fill markers"
       d="m 108.29718,68.530466 c -0.0214,-0.02851 -0.0356,-0.106926 -0.0642,-0.08554 -0.0285,0.02138 0.0855,0.114057 0.0642,0.08554 -0.0821,-0.109451 -0.13996,-0.194377 -0.19247,-0.299395 -0.0216,-0.04314 -0.002,-0.111091 -0.0214,-0.149699 -0.003,-0.0064 -0.0164,0.005 -0.0214,0 -0.0101,-0.01008 0.006,-0.03002 0,-0.04277 -0.004,-0.009 -0.0169,-0.01238 -0.0214,-0.02138 -0.009,-0.01781 0.0136,-0.07198 0,-0.08554 -0.0199,-0.01992 -0.0214,0.0016 -0.0214,-0.04277"
       id="path102" />
    <path
       style="fill:none;fill-opacity:1;stroke:#93512d;stroke-width:1;stroke-linecap:round;stroke-linejoin:round;stroke-dasharray:none;stroke-opacity:1;paint-order:stroke fill markers"
       d="m 109.62307,68.188298 c -0.039,-0.145221 -0.14929,-0.255817 -0.21385,-0.384934 -0.008,-0.01669 -0.0241,-0.08824 -0.0428,-0.106929 -0.0113,-0.01127 -0.0339,-0.0081 -0.0428,-0.02138 -0.008,-0.01185 0.004,-0.02925 0,-0.04277 -0.006,-0.01913 -0.0338,-0.02474 -0.0428,-0.04277 -0.0249,-0.04983 -0.0611,-0.149699 -0.10693,-0.149699"
       id="path104" />
  </g>
  <g
     inkscape:label="Layer 1"
     inkscape:groupmode="layer"
     id="layer1"
     style="display:inline">
    <text
       xml:space="preserve"
       style="display:inline;font-size:77.6111px;font-family:'Hack Nerd Font';-inkscape-font-specification:'Hack Nerd Font';text-align:start;writing-mode:lr-tb;direction:ltr;text-anchor:start;fill:#000000;fill-opacity:1;stroke:none;stroke-width:4;stroke-linecap:round;stroke-linejoin:round;stroke-dasharray:none;stroke-opacity:1;paint-order:stroke fill markers;filter:url(#filter205)"
       x="4.2770734"
       y="129.68089"
       id="text205"><tspan
         sodipodi:role="line"
         id="tspan205"
         style="font-style:normal;font-variant:normal;font-weight:normal;font-stretch:normal;font-size:77.6111px;font-family:'Noto Serif';-inkscape-font-specification:'Noto Serif';fill:#000000;fill-opacity:1;stroke:none;stroke-width:4;stroke-linejoin:round;stroke-dasharray:none;stroke-opacity:1"
         x="4.2770734"
         y="129.68089">.lrb</tspan></text>
    <text
       xml:space="preserve"
       style="font-size:77.6111px;font-family:'Hack Nerd Font';-inkscape-font-specification:'Hack Nerd Font';text-align:start;writing-mode:lr-tb;direction:ltr;text-anchor:start;fill:#ffffff;fill-opacity:1;stroke:#343434;stroke-width:4;stroke-linecap:round;stroke-linejoin:round;stroke-dasharray:none;stroke-opacity:1;paint-order:stroke fill markers"
       x="4.2770734"
       y="129.68089"
       id="text1"><tspan
         sodipodi:role="line"
         id="tspan1"
         style="font-style:normal;font-variant:normal;font-weight:normal;font-stretch:normal;font-size:77.6111px;font-family:'Noto Serif';-inkscape-font-specification:'Noto Serif';fill:#ffffff;fill-opacity:1;stroke:#343434;stroke-width:4;stroke-linejoin:round;stroke-dasharray:none;stroke-opacity:1"
         x="4.2770734"
         y="129.68089">.lrb</tspan></text>
  </g>
</svg>
